<svg xmlns="http://www.w3.org/2000/svg" viewBox="0 0 400 400">
  <defs><linearGradient id="bg" x1="0%" y1="0%" x2="100%" y2="100%"><stop offset="0%" style="stop-color:#004d40;stop-opacity:0.1"/><stop offset="100%" style="stop-color:#00695c;stop-opacity:0.05"/></linearGradient></defs>
  <rect width="400" height="400" rx="16" fill="url(#bg)"/>
  <rect x="90" y="80" width="220" height="200" rx="16" fill="#1b1b2f" stroke="#455a64" stroke-width="2"/>
  <rect x="100" y="95" width="200" height="80" rx="8" fill="#162447"/>
  <text x="200" y="130" text-anchor="middle" font-size="18" fill="#1de9b6" font-family="monospace" font-weight="bold">504Wh</text>
  <text x="200" y="155" text-anchor="middle" font-size="11" fill="#80cbc4" font-family="monospace">700W Output</text>
  <g fill="#1de9b6" opacity="0.6">
    <rect x="110" y="190" width="50" height="14" rx="3"/><rect x="170" y="190" width="50" height="14" rx="3"/><rect x="230" y="190" width="50" height="14" rx="3"/>
    <rect x="110" y="212" width="80" height="14" rx="3"/><rect x="200" y="212" width="80" height="14" rx="3"/>
    <rect x="110" y="234" width="60" height="14" rx="3"/><rect x="180" y="234" width="60" height="14" rx="3"/><rect x="250" y="234" width="40" height="14" rx="3"/>
  </g>
  <rect x="160" y="285" width="80" height="12" rx="6" fill="#546e7a"/>
  <text x="200" y="340" text-anchor="middle" font-size="14" fill="#64748b" font-family="system-ui">Portable Power Station</text>
</svg>