<svg xmlns="http://www.w3.org/2000/svg" viewBox="0 0 1600 900" fill="none">
  <defs>
    <linearGradient id="bg" x1="0" y1="0" x2="1600" y2="900">
      <stop offset="0%" stop-color="#F0F9FF"/><stop offset="100%" stop-color="#ECFDF5"/>
    </linearGradient>
    <linearGradient id="sun" x1="0" y1="0" x2="1" y2="1">
      <stop offset="0%" stop-color="#FBBF24"/><stop offset="100%" stop-color="#F59E0B"/>
    </linearGradient>
  </defs>
  <rect width="1600" height="900" fill="url(#bg)"/>
  <circle cx="200" cy="150" r="60" fill="url(#sun)" opacity="0.9"/>
  <g stroke="#F59E0B" stroke-width="3" opacity="0.4">
    <line x1="200" y1="60" x2="200" y2="30"/><line x1="200" y1="240" x2="200" y2="270"/>
    <line x1="110" y1="150" x2="80" y2="150"/><line x1="290" y1="150" x2="320" y2="150"/>
    <line x1="136" y1="86" x2="115" y2="65"/><line x1="264" y1="214" x2="285" y2="235"/>
    <line x1="264" y1="86" x2="285" y2="65"/><line x1="136" y1="214" x2="115" y2="235"/>
  </g>
  
  <rect x="480" y="340" width="420" height="180" rx="4" fill="#334155" opacity="0.3"/>
  <path d="M480,340 Q690,200 900,340" fill="none" stroke="#1E293B" stroke-width="3"/>
  <g stroke="#1E293B" stroke-width="2">
    <line x1="550" y1="340" x2="550" y2="300"/><line x1="620" y1="340" x2="620" y2="270"/>
    <line x1="690" y1="340" x2="690" y2="255"/><line x1="760" y1="340" x2="760" y2="270"/>
    <line x1="830" y1="340" x2="830" y2="300"/>
  </g>
  <rect x="510" y="380" width="100" height="60" rx="2" fill="#3B82F6" opacity="0.5"/>
  <rect x="700" y="380" width="100" height="60" rx="2" fill="#3B82F6" opacity="0.5"/>
  <rect x="500" y="320" width="380" height="10" rx="3" fill="#1E40AF" opacity="0.6"/>

  <text x="800" y="650" text-anchor="middle" font-family="system-ui, sans-serif" font-size="32" font-weight="600" fill="#1E293B">Agricultural Solar System</text>
  <text x="800" y="700" text-anchor="middle" font-family="system-ui, sans-serif" font-size="18" fill="#64748B">Agriculture · Greenhouse</text>
  <rect x="720" y="750" width="160" height="36" rx="18" fill="#2563EB" opacity="0.9"/>
  <text x="800" y="774" text-anchor="middle" font-family="system-ui, sans-serif" font-size="14" font-weight="600" fill="white">EBTPlaza Project</text>
  <text x="800" y="830" text-anchor="middle" font-family="system-ui, sans-serif" font-size="14" fill="#94A3B8">Professional photography coming soon</text>
</svg>