<svg xmlns="http://www.w3.org/2000/svg" viewBox="0 0 1600 900" fill="none">
  <defs>
    <linearGradient id="bg" x1="0" y1="0" x2="1600" y2="900">
      <stop offset="0%" stop-color="#F0F9FF"/><stop offset="100%" stop-color="#ECFDF5"/>
    </linearGradient>
    <linearGradient id="sun" x1="0" y1="0" x2="1" y2="1">
      <stop offset="0%" stop-color="#FBBF24"/><stop offset="100%" stop-color="#F59E0B"/>
    </linearGradient>
  </defs>
  <rect width="1600" height="900" fill="url(#bg)"/>
  <circle cx="200" cy="150" r="60" fill="url(#sun)" opacity="0.9"/>
  <g stroke="#F59E0B" stroke-width="3" opacity="0.4">
    <line x1="200" y1="60" x2="200" y2="30"/><line x1="200" y1="240" x2="200" y2="270"/>
    <line x1="110" y1="150" x2="80" y2="150"/><line x1="290" y1="150" x2="320" y2="150"/>
    <line x1="136" y1="86" x2="115" y2="65"/><line x1="264" y1="214" x2="285" y2="235"/>
    <line x1="264" y1="86" x2="285" y2="65"/><line x1="136" y1="214" x2="115" y2="235"/>
  </g>
  
  <rect x="580" y="400" width="10" height="180" fill="#475569"/>
  <circle cx="585" cy="390" r="20" fill="#3B82F6" opacity="0.8"/>
  <circle cx="585" cy="390" r="8" fill="#FBBF24"/>
  <rect x="700" y="400" width="10" height="180" fill="#475569"/>
  <circle cx="705" cy="390" r="20" fill="#3B82F6" opacity="0.8"/>
  <circle cx="705" cy="390" r="8" fill="#FBBF24"/>
  <rect x="820" y="400" width="10" height="180" fill="#475569"/>
  <circle cx="825" cy="390" r="20" fill="#3B82F6" opacity="0.8"/>
  <circle cx="825" cy="390" r="8" fill="#FBBF24"/>
  <line x1="585" y1="580" x2="825" y2="580" stroke="#475569" stroke-width="2"/>

  <text x="800" y="650" text-anchor="middle" font-family="system-ui, sans-serif" font-size="32" font-weight="600" fill="#1E293B">Solar Street Lighting</text>
  <text x="800" y="700" text-anchor="middle" font-family="system-ui, sans-serif" font-size="18" fill="#64748B">Infrastructure · Public Lighting</text>
  <rect x="720" y="750" width="160" height="36" rx="18" fill="#2563EB" opacity="0.9"/>
  <text x="800" y="774" text-anchor="middle" font-family="system-ui, sans-serif" font-size="14" font-weight="600" fill="white">EBTPlaza Project</text>
  <text x="800" y="830" text-anchor="middle" font-family="system-ui, sans-serif" font-size="14" fill="#94A3B8">Professional photography coming soon</text>
</svg>